Format : AVI
Format/Info : Audio Video Interleave
File size : 350 MiB
Duration : 42mn 28s
Overall bit rate : 1 151 Kbps
Writing application : VirtualDubMod 1.5.10.2 (build 2542/release)
Writing library : VirtualDubMod build 2542/release

Video
ID : 0
Format : MPEG-4 Visual
Format profile : Advanced Simple@L5
Format settings, BVOP : Yes
Format settings, QPel : No
Format settings, GMC : No warppoints
Format settings, Matrix : Default (H.263)
Codec ID : XVID
Codec ID/Hint : XviD
Duration : 42mn 28s
Bit rate : 1 026 Kbps
Width : 624 pixels
Height : 352 pixels
Display aspect ratio : 16:9
Frame rate : 29.970 fps
Color space : YUV
Chroma subsampling : 4:2:0
Bit depth : 8 bits
Scan type : Progressive
Bits/(Pixel*Frame) : 0.156
Stream size : 312 MiB (89%)
Writing library : XviD 58

Audio
ID : 1
Format : MPEG Audio
Format version : Version 1
Format profile : Layer 3
Mode : Joint stereo
Mode extension : MS Stereo
Codec ID : 55
Codec ID/Hint : MP3
Duration : 42mn 28s
Bit rate mode : Variable
Bit rate : 112 Kbps
Channel(s) : 2 channels
Sampling rate : 48.0 KHz
Stream size : 33.6 MiB (10%)
Alignment : Aligned on interleaves
Interleave, duration : 24 ms (0.72 video frame)
Interleave, preload duration : 593 ms
Writing library : LAME3.99 (alpha)
